<?xml version="1.0" encoding="utf-8"?>
<svg version="1.1" id="Warstwa_3" xmlns="http://www.w3.org/2000/svg" xmlns:xlink="http://www.w3.org/1999/xlink" x="0px" y="0px"
	 viewBox="0  0 430 430" style="enable-background:new 0 0 430 430;" xml:space="preserve">
<style type="text/css">
	.st0{fill:#d7faf4;}
	.st1{fill:#d7faf4;}
</style>
<g>
	<path class="st0" d="M310.33,354.5H81.57c-3.31,0-6-2.69-6-6V119.62c0-24.33,19.78-44.12,44.1-44.12H215c3.31,0,6,2.69,6,6
		s-2.69,6-6,6h-95.33c-17.7,0-32.1,14.41-32.1,32.12V342.5h222.76c17.7,0,32.1-14.41,32.1-32.12v-96.44c0-3.31,2.69-6,6-6
		c3.31,0,6,2.69,6,6v96.44C354.43,334.71,334.65,354.5,310.33,354.5z"  stroke="#d7faf4" stroke-width="10"/>
	<path class="st1" d="M348.43,175.74c-3.31,0-6-2.69-6-6V87.5H260c-3.31,0-6-2.69-6-6s2.69-6,6-6h88.43c3.31,0,6,2.69,6,6v88.25
		C354.43,173.06,351.75,175.74,348.43,175.74z" stroke="#d7faf4" stroke-width="10"/>
	<path class="st1" d="M215.14,220.86c-1.54,0-3.07-0.59-4.24-1.76c-2.34-2.34-2.34-6.14,0-8.49L344.19,77.26
		c2.34-2.34,6.14-2.34,8.49,0c2.34,2.34,2.34,6.14,0,8.49L219.38,219.1C218.21,220.28,216.67,220.86,215.14,220.86z" stroke="#d7faf4" stroke-width="10"/>
</g>
</svg>
